<?xml version="1.0" encoding="UTF-8" standalone="no"?>
<!DOCTYPE svg PUBLIC "-//W3C//DTD SVG 1.0//EN" "http://www.w3.org/TR/2001/REC-SVG-20010904/DTD/svg10.dtd">
<!-- Created with Inkscape (http://www.inkscape.org/) -->
<svg
   xmlns:svg="http://www.w3.org/2000/svg"
   xmlns="http://www.w3.org/2000/svg"
   version="1.0"
   width="800"
   height="250"
   id="svg2">
  <defs
     id="defs4" />
  <g
     id="layer1">
    <path
       d="M 234.05679,95.549831 L 238.1654,61.595324 C 238.62392,57.805512 238.49784,55.225143 237.78713,53.854191 C 237.0763,52.483494 235.63554,51.798074 233.46487,51.797934 C 231.54452,51.798074 229.99913,52.322215 228.82874,53.370352 C 227.6582,54.418771 226.95099,55.950862 226.70713,57.966652 L 226.26805,61.595324 L 222.15944,95.549831 L 234.05679,95.549831 z M 230.10099,126.79528 L 268.0473,126.79528 L 265.73481,147.3525 C 263.47102,166.06026 259.53063,177.7526 253.91365,182.4295 C 248.29647,187.10645 236.01179,189.44491 217.05959,189.44491 C 197.60632,189.44491 185.67018,187.00564 181.25108,182.12711 C 176.83199,177.24861 175.72991,165.65707 177.94482,147.3525 L 187.83874,65.586832 C 190.1317,46.637339 194.16289,34.884551 199.93235,30.328409 C 205.70172,25.772577 218.02084,23.494591 236.88969,23.494451 C 256.09233,23.494591 267.90571,25.913709 272.32979,30.751745 C 276.75363,35.590118 277.85331,47.201778 275.62872,65.586832 L 268.98835,120.46455 L 219.14467,120.46455 L 215.37888,151.58594 C 214.92998,155.29527 215.07695,157.87564 215.81977,159.32708 C 216.56246,160.77857 218.01923,161.50429 220.19004,161.50426 C 222.02675,161.50429 223.5377,160.91967 224.72286,159.75041 C 225.9079,158.58121 226.63219,156.90802 226.8957,154.73078 L 227.27623,151.58594 L 230.10099,126.79528 z M 327.39572,148.80397 L 337.64091,64.135366 C 338.05065,60.748768 337.92592,58.32965 337.2667,56.878072 C 336.60737,55.426721 335.31761,54.701003 333.39739,54.700863 C 330.9761,54.701003 329.2258,55.366246 328.1465,56.696616 C 327.06704,58.027267 326.3078,60.506834 325.8688,64.135366 L 315.6236,148.80397 C 315.18445,152.43267 315.32276,154.91223 316.03847,156.24272 C 316.75407,157.57326 318.19726,158.2385 320.36807,158.23847 C 322.45524,158.2385 324.04587,157.51278 325.13997,156.06129 C 326.23395,154.60985 326.98586,152.19076 327.39572,148.80397 L 327.39572,148.80397 z M 268.29562,226.33623 L 292.72307,24.462075 L 330.66939,24.462075 L 329.73267,32.203208 C 333.34,29.300448 337.00569,27.123267 340.72971,25.671635 C 344.45359,24.220338 348.23585,23.494591 352.07647,23.494451 C 362.09522,23.494591 368.9599,26.619277 372.67055,32.868451 C 376.38096,39.117961 377.35319,49.540268 375.58722,64.135366 L 375.01641,68.852618 L 365.03469,151.34404 C 363.45391,164.40722 359.99923,173.98282 354.67069,180.07088 C 349.34198,186.15897 341.79345,189.203 332.02518,189.203 C 328.18456,189.203 324.57795,188.47726 321.20531,187.02579 C 317.83256,185.57436 314.69376,183.39715 311.78897,180.49422 L 306.24194,226.33623 L 268.29562,226.33623 z M 427.88099,117.83946 C 423.0743,119.61354 419.71658,121.48834 417.80778,123.46386 C 415.89884,125.43955 414.59805,129.28993 413.90531,135.0151 L 411.90018,151.58594 C 411.45132,155.29527 411.59825,157.87564 412.34108,159.32708 C 413.08379,160.77857 414.54053,161.50429 416.71134,161.50426 C 418.88204,161.50429 420.48378,160.85919 421.51663,159.56898 C 422.5493,158.27883 423.30963,155.61781 423.79754,151.58594 L 427.88099,117.83946 z M 381.53766,88.911766 L 384.36004,65.586832 C 386.65302,46.637339 390.68421,34.884551 396.45364,30.328409 C 402.22305,25.772577 414.54216,23.494591 433.41101,23.494451 C 452.61367,23.494591 464.42701,25.913709 468.85111,30.751745 C 473.27497,35.590118 474.3746,47.201778 472.15004,65.586832 L 457.27987,188.47726 L 419.58406,188.47726 L 420.47685,181.09901 C 416.37822,183.92129 412.32573,186.01784 408.31937,187.38868 C 404.31289,188.75949 400.13892,189.44491 395.79747,189.44491 C 385.94561,189.44491 379.41516,186.66294 376.20615,181.09901 C 372.99707,175.53509 372.4171,164.28626 374.46612,147.3525 L 376.41272,131.26547 C 377.35917,123.44377 379.24031,117.55731 382.05616,113.60602 C 384.87199,109.6549 389.8488,105.78435 396.98663,101.99433 L 432.06687,83.246279 L 435.09651,58.208557 C 435.3599,56.031516 435.11673,54.418771 434.367,53.370352 C 433.61713,52.322215 432.32384,51.798074 430.48712,51.797934 C 428.14933,51.798074 426.39903,52.463344 425.23621,53.793717 C 424.07327,55.124338 423.25765,57.724887 422.78935,61.595324 L 419.48398,88.911766 L 381.53766,88.911766 z M 568.50693,188.47726 L 583.61125,63.651556 C 583.99167,60.506834 583.81301,58.188549 583.07522,56.696616 C 582.33721,55.204993 581.00816,54.459098 579.08802,54.458957 C 576.66665,54.459098 574.87462,55.124338 573.71186,56.454711 C 572.54886,57.785362 571.75764,60.1843 571.33819,63.651556 L 556.23388,188.47726 L 518.78848,188.47726 L 533.89282,63.651556 C 534.28304,60.426206 534.12769,58.087745 533.42673,56.636139 C 532.72565,55.184816 531.37326,54.459098 529.36956,54.458957 C 526.86478,54.459098 525.05188,55.124338 523.93078,56.454711 C 522.80959,57.785362 522.03924,60.1843 521.61974,63.651556 L 506.51539,188.47726 L 468.81958,188.47726 L 488.66596,24.462075 L 526.61227,24.462075 L 525.55849,33.17086 C 529.30782,29.784262 532.9659,27.324845 536.53274,25.792588 C 540.09941,24.260666 543.92829,23.494591 548.01938,23.494451 C 552.69475,23.494591 556.78765,24.341291 560.29817,26.034493 C 563.80848,27.728033 567.20804,30.510009 570.49686,34.380392 C 574.85987,30.751914 579.32194,28.030416 583.88311,26.215923 C 588.444,24.401769 593.06221,23.494591 597.73781,23.494451 C 607.7565,23.494591 614.62118,26.619277 618.33188,32.868451 C 622.04224,39.117961 623.01447,49.540268 621.24856,64.135366 L 620.67774,68.852618 L 606.20277,188.47726 L 568.50693,188.47726 z"
       id="text3247"
       style="font-size:88.02459717px;font-style:normal;font-variant:normal;font-weight:normal;font-stretch:normal;text-align:start;line-height:100%;writing-mode:lr-tb;text-anchor:start;fill:#26619d;fill-opacity:1;stroke:none;stroke-width:1px;stroke-linecap:butt;stroke-linejoin:miter;stroke-opacity:1;font-family:Compacta Bd BT;-inkscape-font-specification:Compacta Bd BT" />
    <path
       d="M 176.75365,42.749677 L 24.986606,97.693643 L 24.986606,129.46092 L 166.28387,184.3154 C 167.34512,170.18935 167.40305,169.55806 168.521,154.60629 L 64.002191,113.97997 L 174.51652,74.069528 C 175.33019,62.983117 176.10489,51.757825 176.75365,42.749677 z"
       id="path3251"
       style="opacity:1;fill:#26619d;fill-opacity:1;fill-rule:evenodd;stroke:none;stroke-width:10;stroke-linecap:butt;stroke-linejoin:miter;stroke-miterlimit:4;stroke-dasharray:none;stroke-opacity:1" />
    <path
       d="M 626.16152,184.3154 L 777.92856,129.37144 L 777.92856,97.604158 L 636.63129,42.749677 C 635.57004,56.875724 635.51211,57.507018 634.39416,72.458792 L 738.91298,113.08511 L 628.39865,152.99555 C 627.58498,164.08196 626.81028,175.30725 626.16152,184.3154 z"
       id="path3276"
       style="opacity:1;fill:#26619d;fill-opacity:1;fill-rule:evenodd;stroke:none;stroke-width:10;stroke-linecap:butt;stroke-linejoin:miter;stroke-miterlimit:4;stroke-dasharray:none;stroke-opacity:1" />
  </g>
</svg>
